HIERARCHY
ROOT hip
{
  OFFSET 0.0 0.0 0.0
  CHANNELS 6 Xposition Yposition Zposition Zrotation Yrotation Xrotation
  JOINT abdomen
  {
    OFFSET 0.0 20.6881 -0.73152
    CHANNELS 3 Zrotation Xrotation Yrotation
    JOINT chest
    {
      OFFSET 0.0 11.7043 -0.48768
      CHANNELS 3 Zrotation Xrotation Yrotation
      JOINT neck
      {
        OFFSET 0.0 22.1894 -2.19456
        CHANNELS 3 Zrotation Xrotation Yrotation
        JOINT head
        {
          OFFSET -0.24384 7.07133 1.2192
          CHANNELS 3 Zrotation Xrotation Yrotation
          JOINT leftEye
          {
            OFFSET 4.14528 8.04674 8.04672
            CHANNELS 3 Zrotation Xrotation Yrotation
            End Site
            {
              OFFSET 1.0 0.0 0.0
            }
          }
          JOINT rightEye
          {
            OFFSET -3.6576 8.04674 8.04672
            CHANNELS 3 Zrotation Xrotation Yrotation
            End Site
            {
              OFFSET 1.0 0.0 0.0
            }
          }
        }
      }
      JOINT rCollar
      {
        OFFSET -2.68224 19.2634 -4.8768
        CHANNELS 3 Zrotation Xrotation Yrotation
        JOINT rShldr
        {
          OFFSET -8.77824 -1.95073 1.46304
          CHANNELS 3 Zrotation Xrotation Yrotation
          JOINT rForeArm
          {
            OFFSET -28.1742 -1.7115 0.48768
            CHANNELS 3 Zrotation Xrotation Yrotation
            JOINT rHand
            {
              OFFSET -22.5879 0.773209 7.07136
              CHANNELS 3 Zrotation Xrotation Yrotation
              JOINT rThumb1
              {
                OFFSET -1.2192 -0.487915 3.41376
                CHANNELS 3 Zrotation Xrotation Yrotation
                JOINT rThumb2
                {
                  OFFSET -3.37035 -0.52449 3.41376
                  CHANNELS 3 Zrotation Xrotation Yrotation
                  End Site
                  {
                    OFFSET -1.78271 -1.18214 1.43049
                  }
                }
              }
              JOINT rIndex1
              {
                OFFSET -7.75947 0.938293 5.60832
                CHANNELS 3 Zrotation Xrotation Yrotation
                JOINT rIndex2
                {
                  OFFSET -2.54057 -0.884171 1.56538
                  CHANNELS 3 Zrotation Xrotation Yrotation
                  End Site
                  {
                    OFFSET -1.62519 -0.234802 1.16502
                  }
                }
              }
              JOINT rMid1
              {
                OFFSET -8.24714 1.18213 3.41376
                CHANNELS 3 Zrotation Xrotation Yrotation
                JOINT rMid2
                {
                  OFFSET -3.10165 -0.590103 1.0647
                  CHANNELS 3 Zrotation Xrotation Yrotation
                  End Site
                  {
                    OFFSET -2.48547 -0.328903 0.83742
                  }
                }
              }
              JOINT rRing1
              {
                OFFSET -8.82822 0.546677 1.51678
                CHANNELS 3 Zrotation Xrotation Yrotation
                JOINT rRing2
                {
                  OFFSET -2.60934 -0.819778 -0.0198488
                  CHANNELS 3 Zrotation Xrotation Yrotation
                  End Site
                  {
                    OFFSET -2.33842 -0.294052 0.168128
                  }
                }
              }
              JOINT rPinky1
              {
                OFFSET -8.27202 -0.0477905 -0.4584
                CHANNELS 3 Zrotation Xrotation Yrotation
                JOINT rPinky2
                {
                  OFFSET -1.82734 -0.647385 -0.700984
                  CHANNELS 3 Zrotation Xrotation Yrotation
                  End Site
                  {
                    OFFSET -1.69225 -0.51767 -0.607171
                  }
                }
              }
            }
          }
        }
      }
      JOINT lCollar
      {
        OFFSET 2.68224 19.2634 -4.8768
        CHANNELS 3 Zrotation Xrotation Yrotation
        JOINT lShldr
        {
          OFFSET 8.77824 -1.95073 1.46304
          CHANNELS 3 Zrotation Xrotation Yrotation
          JOINT lForeArm
          {
            OFFSET 28.1742 -1.7115 0.48768
            CHANNELS 3 Zrotation Xrotation Yrotation
            JOINT lHand
            {
              OFFSET 22.5879 0.773209 7.07136
              CHANNELS 3 Zrotation Xrotation Yrotation
              JOINT lThumb1
              {
                OFFSET 1.2192 -0.487915 3.41376
                CHANNELS 3 Zrotation Xrotation Yrotation
                JOINT lThumb2
                {
                  OFFSET 3.37035 -0.52449 3.41376
                  CHANNELS 3 Zrotation Xrotation Yrotation
                  End Site
                  {
                    OFFSET 1.78271 -1.18214 1.43049
                  }
                }
              }
              JOINT lIndex1
              {
                OFFSET 7.75947 0.938293 5.60832
                CHANNELS 3 Zrotation Xrotation Yrotation
                JOINT lIndex2
                {
                  OFFSET 2.54057 -0.884171 1.56538
                  CHANNELS 3 Zrotation Xrotation Yrotation
                  End Site
                  {
                    OFFSET 1.62519 -0.234802 1.16502
                  }
                }
              }
              JOINT lMid1
              {
                OFFSET 8.24714 1.18213 3.41376
                CHANNELS 3 Zrotation Xrotation Yrotation
                JOINT lMid2
                {
                  OFFSET 3.10165 -0.590103 1.0647
                  CHANNELS 3 Zrotation Xrotation Yrotation
                  End Site
                  {
                    OFFSET 2.48547 -0.328903 0.83742
                  }
                }
              }
              JOINT lRing1
              {
                OFFSET 8.82822 0.546677 1.51678
                CHANNELS 3 Zrotation Xrotation Yrotation
                JOINT lRing2
                {
                  OFFSET 2.60934 -0.819778 -0.0198488
                  CHANNELS 3 Zrotation Xrotation Yrotation
                  End Site
                  {
                    OFFSET 2.33842 -0.294052 0.168128
                  }
                }
              }
              JOINT lPinky1
              {
                OFFSET 8.27202 -0.0477905 -0.4584
                CHANNELS 3 Zrotation Xrotation Yrotation
                JOINT lPinky2
                {
                  OFFSET 1.82734 -0.647385 -0.700984
                  CHANNELS 3 Zrotation Xrotation Yrotation
                  End Site
                  {
                    OFFSET 1.69225 -0.51767 -0.607171
                  }
                }
              }
            }
          }
        }
      }
    }
  }
  JOINT rButtock
  {
    OFFSET -8.77824 4.35084 1.2192
    CHANNELS 3 Zrotation Xrotation Yrotation
    JOINT rThigh
    {
      OFFSET 0.0 -1.70687 -2.19456
      CHANNELS 3 Zrotation Xrotation Yrotation
      JOINT rShin
      {
        OFFSET 0.0 -36.8199 0.73152
        CHANNELS 3 Zrotation Xrotation Yrotation
        JOINT rFoot
        {
          OFFSET 0.73152 -45.1104 -5.12064
          CHANNELS 3 Zrotation Xrotation Yrotation
          End Site
          {
            OFFSET -1.1221 -3.69964 12.103
          }
        }
      }
    }
  }
  JOINT lButtock
  {
    OFFSET 8.77824 4.35084 1.2192
    CHANNELS 3 Zrotation Xrotation Yrotation
    JOINT lThigh
    {
      OFFSET 0.0 -1.70687 -2.19456
      CHANNELS 3 Zrotation Xrotation Yrotation
      JOINT lShin
      {
        OFFSET 0.0 -36.8199 0.73152
        CHANNELS 3 Zrotation Xrotation Yrotation
        JOINT lFoot
        {
          OFFSET -0.73152 -45.1104 -5.12064
          CHANNELS 3 Zrotation Xrotation Yrotation
          End Site
          {
            OFFSET 1.1221 -3.69964 12.103
          }
        }
      }
    }
  }
}
MOTION
Frames: 8
Frame Time: 0.00833333
0.0 84.6108 0.0 2.9181 14.1147 5.781 -4.26132 2.18793 -2.14652 4.13118 -4.76837 -0.432605 1.26687 -3.3401 -0.774616 -0.383231 -17.1346 -2.04144 -0.0 0.0 0.0 -0.0 0.0 0.0 8.78275e-14 7.15644e-14 6.21202e-15 78.6223 15.4448 -3.16795 -10.9028 -4.7083 19.5057 -0.0127264 -3.21913 -0.452901 2.00971e-10 -8.79869e-11 -5.85451e-10 3.49584e-10 -1.54527e-10 -1.01308e-09 2.00974e-10 -8.79805e-11 -5.85464e-10 7.73091 5.47488 0.417314 2.00967e-10 -8.79841e-11 -5.85454e-10 2.90554 0.965183 0.102902 2.00979e-10 -8.79833e-11 -5.85447e-10 10.2786 0.731801 0.0259123 2.00969e-10 -8.79837e-11 -5.85435e-10 2.22167 -0.733487 -0.20892 1.89645e-14 -2.22709e-14 5.71009e-14 -37.8801 -20.6408 7.65582 17.6987 -10.3663 -33.3477 0.321321 15.9207 -2.29755 -3.79277e-10 3.4604e-10 1.50408e-10 -6.54623e-10 5.98498e-10 2.6438e-10 -3.79283e-10 3.46043e-10 1.50421e-10 -7.73091 5.47488 -0.417314 -3.79276e-10 3.46039e-10 1.50415e-10 -2.90554 0.965183 -0.102902 -3.79289e-10 3.46039e-10 1.50415e-10 -10.2786 0.731801 -0.0259123 -3.79275e-10 3.46041e-10 1.50408e-10 -2.22167 -0.733487 0.20892 -2.03217e-16 0.0 -3.88251e-19 -5.17978 -32.5339 -10.7769 -0.349918 39.5758 0.530562 -2.14814 -0.458127 -13.9677 2.03217e-16 0.0 3.88251e-19 2.93858 1.06942 -1.33496 0.218151 34.4721 -0.661284 1.54869 14.5575 -5.91953
-0.05482000000000031 85.157 0.8345000000000056 2.7026 14.147 5.7955 -3.61797 2.1055 -2.03596 3.99797 -4.77384 -0.391299 1.26215 -3.38505 -0.836298 -0.4179 -17.2492 -2.17071 -0.0 0.0 0.0 -0.0 0.0 0.0 1.07382e-13 7.90165e-14 2.39745e-14 78.5772 15.3502 -3.14099 -10.859 -4.67992 19.4225 -0.0119972 -3.12121 -0.439098 3.57273e-12 6.09023e-10 -5.16372e-11 6.64739e-12 1.05375e-09 -8.93156e-11 3.57624e-12 6.09028e-10 -5.16486e-11 7.73091 5.47488 0.417314 3.57142e-12 6.09023e-10 -5.16381e-11 2.90554 0.965183 0.102902 3.58075e-12 6.09024e-10 -5.16332e-11 10.2786 0.731801 0.0259123 3.57069e-12 6.09023e-10 -5.16206e-11 2.22167 -0.733487 -0.20892 1.63588e-14 -2.55741e-14 6.78667e-14 -37.6367 -20.66 7.67728 17.7253 -10.3943 -33.4068 0.345885 16.4075 -2.37277 -5.4373e-10 -6.82165e-10 3.54094e-10 -9.35224e-10 -1.18144e-09 6.19412e-10 -5.43734e-10 -6.82162e-10 3.54106e-10 -7.73091 5.47488 -0.417314 -5.43729e-10 -6.82164e-10 3.541e-10 -2.90554 0.965183 -0.102902 -5.4374e-10 -6.82164e-10 3.541e-10 -10.2786 0.731801 -0.0259123 -5.43727e-10 -6.82163e-10 3.54093e-10 -2.22167 -0.733487 0.20892 -2.03217e-16 0.0 -3.88251e-19 -4.59802 -31.3687 -10.5586 -0.330265 38.4142 0.467104 -1.8819 0.20781 -13.4576 2.03217e-16 0.0 3.88251e-19 3.35007 -0.787168 -1.23456 0.267509 37.0142 -0.686115 1.50213 14.6762 -5.72673
-0.09132000000000051 85.7144 1.6476000000000042 2.5163 14.0737 5.8085 -3.02501 2.03609 -1.84849 3.87494 -4.76849 -0.327809 1.27298 -3.42733 -0.902552 -0.478708 -17.3953 -2.31859 -0.0 0.0 0.0 -0.0 0.0 0.0 1.33981e-13 8.11833e-14 4.39749e-14 78.5411 15.2016 -3.11546 -10.8082 -4.64705 19.3263 -0.0114156 -3.04337 -0.428128 -3.38444e-10 1.43368e-09 7.48048e-10 -5.86785e-10 2.48367e-09 1.2945e-09 -3.38439e-10 1.43369e-09 7.48039e-10 7.73091 5.47488 0.417314 -3.3844e-10 1.43368e-09 7.48051e-10 2.90554 0.965183 0.102902 -3.38435e-10 1.43368e-09 7.48051e-10 10.2786 0.731801 0.0259123 -3.38447e-10 1.43368e-09 7.48065e-10 2.22167 -0.733487 -0.20892 1.51612e-14 -3.71757e-14 8.52196e-14 -37.3768 -20.6734 7.70234 17.7547 -10.4253 -33.4723 0.355733 16.586 -2.40061 -7.36436e-10 -1.88445e-09 3.95646e-10 -1.26528e-09 -3.26293e-09 6.94912e-10 -7.36437e-10 -1.88445e-09 3.95656e-10 -7.73091 5.47488 -0.417314 -7.36433e-10 -1.88445e-09 3.95651e-10 -2.90554 0.965183 -0.102902 -7.36443e-10 -1.88445e-09 3.95651e-10 -10.2786 0.731801 -0.0259123 -7.36431e-10 -1.88445e-09 3.95643e-10 -2.22167 -0.733487 0.20892 -2.03217e-16 0.0 -3.88251e-19 -4.06381 -30.2898 -10.2576 -0.312179 37.2898 0.403131 -1.59234 1.01704 -12.8969 2.03217e-16 0.0 3.88251e-19 3.67612 -2.69219 -1.03806 0.322261 39.5771 -0.716502 1.2991 14.0762 -5.0251
-0.11527000000000065 86.2806 2.449000000000005 2.3544 13.9021 5.8094 -2.48052 1.99061 -1.6124 3.75991 -4.74824 -0.251557 1.28892 -3.47452 -0.966519 -0.539847 -17.5482 -2.4639 -0.0 0.0 0.0 -0.0 0.0 0.0 1.53231e-13 8.49032e-14 6.18663e-14 78.4753 15.0637 -3.07802 -10.7465 -4.6073 19.2092 -0.011084 -3.00052 -0.422087 -7.25158e-10 2.23731e-09 1.53554e-09 -1.25745e-09 3.87711e-09 2.65723e-09 -7.25152e-10 2.23731e-09 1.53553e-09 7.73091 5.47488 0.417314 -7.25149e-10 2.2373e-09 1.53555e-09 2.90554 0.965183 0.102902 -7.25147e-10 2.2373e-09 1.53554e-09 10.2786 0.731801 0.0259123 -7.25162e-10 2.2373e-09 1.53556e-09 2.22167 -0.733487 -0.20892 1.07194e-14 -4.52988e-14 9.68621e-14 -37.0981 -20.686 7.73354 17.7871 -10.4596 -33.5445 0.346789 16.4069 -2.37289 -9.37532e-10 -3.03297e-09 3.99534e-10 -1.61033e-09 -5.25139e-09 7.05153e-10 -9.3753e-10 -3.03296e-09 3.99542e-10 -7.73091 5.47488 -0.417314 -9.37528e-10 -3.03296e-09 3.99538e-10 -2.90554 0.965183 -0.102902 -9.37535e-10 -3.03296e-09 3.99538e-10 -10.2786 0.731801 -0.0259123 -9.37525e-10 -3.03296e-09 3.99529e-10 -2.22167 -0.733487 0.20892 -2.03217e-16 0.0 -3.88251e-19 -3.60013 -29.2859 -9.9388 -0.296269 36.2327 0.343613 -1.29384 1.94362 -12.2759 2.03217e-16 0.0 3.88251e-19 3.94717 -4.58841 -0.740324 0.37966 42.0384 -0.751779 1.05654 13.1392 -4.10564
-0.1264700000000003 86.8519 3.243300000000005 2.2201 13.6456 5.7941 -1.98295 1.98001 -1.356 3.65067 -4.70903 -0.171965 1.29953 -3.53424 -1.02134 -0.575024 -17.6831 -2.58532 -0.0 0.0 0.0 -0.0 0.0 0.0 1.50742e-13 9.70147e-14 7.33018e-14 78.3411 15.0012 -3.01527 -10.6695 -4.5583 19.0631 -0.0111063 -3.00752 -0.423071 -1.05665e-09 2.87121e-09 2.03278e-09 -1.83209e-09 4.9759e-09 3.51772e-09 -1.05664e-09 2.87121e-09 2.03278e-09 7.73091 5.47488 0.417314 -1.05664e-09 2.8712e-09 2.03279e-09 2.90554 0.965183 0.102902 -1.05664e-09 2.8712e-09 2.03278e-09 10.2786 0.731801 0.0259123 -1.05665e-09 2.8712e-09 2.0328e-09 2.22167 -0.733487 -0.20892 -1.6186e-15 -3.81669e-14 9.04967e-14 -36.7984 -20.7026 7.77342 17.8228 -10.4974 -33.6239 0.317154 15.8205 -2.28231 -1.12716e-09 -3.89984e-09 4.90228e-10 -1.9359e-09 -6.75219e-09 8.6441e-10 -1.12716e-09 -3.89984e-09 4.90235e-10 -7.73091 5.47488 -0.417314 -1.12715e-09 -3.89983e-09 4.90232e-10 -2.90554 0.965183 -0.102902 -1.12716e-09 -3.89983e-09 4.90232e-10 -10.2786 0.731801 -0.0259123 -1.12715e-09 -3.89983e-09 4.90222e-10 -2.22167 -0.733487 0.20892 -2.03217e-16 0.0 -3.88251e-19 -3.22455 -28.3468 -9.66481 -0.282561 35.273 0.293178 -1.00101 2.96146 -11.5845 2.03217e-16 0.0 3.88251e-19 4.19326 -6.41836 -0.335435 0.436318 44.2755 -0.790629 0.86473 12.2522 -3.25135
-0.13411000000000062 87.4257 4.034600000000005 2.0985 13.3266 5.7613 -1.5393 2.01225 -1.07076 3.54447 -4.63983 -0.087356 1.30049 -3.61845 -1.06842 -0.574194 -17.8043 -2.68285 -0.0 0.0 0.0 -0.0 0.0 0.0 1.1092e-13 1.26764e-13 7.52579e-14 78.0687 15.1095 -2.90309 -10.5693 -4.49492 18.8729 -0.0116733 -3.08864 -0.434503 -1.36697e-09 3.40057e-09 2.13333e-09 -2.3696e-09 5.89257e-09 3.69192e-09 -1.36697e-09 3.40057e-09 2.13332e-09 7.73091 5.47488 0.417314 -1.36696e-09 3.40056e-09 2.13334e-09 2.90554 0.965183 0.102902 -1.36696e-09 3.40056e-09 2.13333e-09 10.2786 0.731801 0.0259123 -1.36698e-09 3.40056e-09 2.13335e-09 2.22167 -0.733487 -0.20892 -2.91381e-14 -3.08386e-15 5.24147e-14 -36.4757 -20.7266 7.81693 17.8603 -10.5373 -33.7077 0.267615 14.6903 -2.11022 -1.34121e-09 -4.51055e-09 8.06824e-10 -2.30346e-09 -7.80942e-09 1.41306e-09 -1.34121e-09 -4.51055e-09 8.0683e-10 -7.73091 5.47488 -0.417314 -1.3412e-09 -4.51055e-09 8.06826e-10 -2.90554 0.965183 -0.102902 -1.34121e-09 -4.51055e-09 8.06826e-10 -10.2786 0.731801 -0.0259123 -1.3412e-09 -4.51054e-09 8.06818e-10 -2.22167 -0.733487 0.20892 -2.03217e-16 0.0 -3.88251e-19 -2.96011 -27.4853 -9.46225 -0.269634 34.4184 0.251721 -0.714697 4.1019 -10.7622 2.03217e-16 0.0 3.88251e-19 4.41896 -8.17918 0.219695 0.492255 46.2749 -0.833747 0.72316 11.4391 -2.47092
-0.1360600000000005 87.9991 4.825600000000001 1.9998 12.9483 5.7157 -1.1488 2.07977 -0.746934 3.443 -4.54611 0.00588067 1.29783 -3.71978 -1.11033 -0.552139 -17.9213 -2.76588 -0.0 0.0 0.0 -0.0 0.0 0.0 4.53611e-14 1.6803e-13 7.06742e-14 77.6977 15.328 -2.75523 -10.4499 -4.41976 18.6472 -0.0127419 -3.22919 -0.454315 -1.68918e-09 3.86973e-09 1.99626e-09 -2.92735e-09 6.70435e-09 3.45503e-09 -1.68918e-09 3.86974e-09 1.99624e-09 7.73091 5.47488 0.417314 -1.68918e-09 3.86973e-09 1.99626e-09 2.90554 0.965183 0.102902 -1.68918e-09 3.86973e-09 1.99626e-09 10.2786 0.731801 0.0259123 -1.68919e-09 3.86973e-09 1.99627e-09 2.22167 -0.733487 -0.20892 -6.7343e-14 5.04841e-14 -7.34882e-15 -36.1318 -20.7548 7.86465 17.9001 -10.5795 -33.7967 0.209774 13.0832 -1.8701 -1.57654e-09 -4.95788e-09 1.24764e-09 -2.70785e-09 -8.58377e-09 2.17574e-09 -1.57655e-09 -4.95788e-09 1.24764e-09 -7.73091 5.47488 -0.417314 -1.57654e-09 -4.95788e-09 1.24764e-09 -2.90554 0.965183 -0.102902 -1.57655e-09 -4.95788e-09 1.24764e-09 -10.2786 0.731801 -0.0259123 -1.57654e-09 -4.95788e-09 1.24763e-09 -2.22167 -0.733487 0.20892 -2.03217e-16 0.0 -3.88251e-19 -2.78659 -26.7024 -9.29075 -0.256762 33.6531 0.216418 -0.446074 5.36832 -9.8336 2.03217e-16 0.0 3.88251e-19 4.629 -9.89617 0.912632 0.549158 48.0956 -0.881421 0.603624 10.5191 -1.63787
-0.14354000000000067 88.5603 5.618500000000001 1.8958 12.5145 5.6511 -0.798333 2.17038 -0.410897 3.35082 -4.44858 0.101236 1.29678 -3.81684 -1.142 -0.519368 -18.0177 -2.82705 -0.0 0.0 0.0 -0.0 0.0 0.0 -1.95511e-14 2.046e-13 6.41492e-14 77.354 15.4877 -2.61534 -10.326 -4.34209 18.4137 -0.0140373 -3.38557 -0.476369 -1.92187e-09 4.0988e-09 1.74173e-09 -3.32979e-09 7.10014e-09 3.01477e-09 -1.92186e-09 4.0988e-09 1.74172e-09 7.73091 5.47488 0.417314 -1.92187e-09 4.0988e-09 1.74174e-09 2.90554 0.965183 0.102902 -1.92186e-09 4.0988e-09 1.74173e-09 10.2786 0.731801 0.0259123 -1.92188e-09 4.0988e-09 1.74174e-09 2.22167 -0.733487 -0.20892 -1.03214e-13 1.01071e-13 -6.54755e-14 -35.7693 -20.7819 7.92752 17.9447 -10.6272 -33.8965 0.156196 11.2554 -1.60189 -1.75476e-09 -5.11492e-09 1.57596e-09 -3.01462e-09 -8.85554e-09 2.74313e-09 -1.75477e-09 -5.11491e-09 1.57597e-09 -7.73091 5.47488 -0.417314 -1.75475e-09 -5.11491e-09 1.57596e-09 -2.90554 0.965183 -0.102902 -1.75476e-09 -5.11492e-09 1.57596e-09 -10.2786 0.731801 -0.0259123 -1.75475e-09 -5.11491e-09 1.57596e-09 -2.22167 -0.733487 0.20892 -2.03217e-16 0.0 -3.88251e-19 -2.6556 -25.9707 -9.11221 -0.244719 32.9715 0.187681 -0.215502 6.69065 -8.91553 2.03217e-16 0.0 3.88251e-19 4.84465 -11.554 1.66555 0.604997 49.7239 -0.930711 0.516753 9.57863 -0.82224
